<svg width="41" height="60" viewBox="0 0 41 60" fill="none" xmlns="http://www.w3.org/2000/svg">
<path d="M18.1991 34.0735L10.5825 17.4162C9.95507 16.0434 8.33321 15.4399 6.96128 16.0674C5.58846 16.6948 4.98491 18.3167 5.61239 19.6886L16.3388 43.1462" stroke="#3E3E3E" stroke-width="2" stroke-miterlimit="10" stroke-linecap="round" stroke-linejoin="round"/>
<path d="M23.6299 32.8088L20.2205 25.3536C19.593 23.9808 17.9711 23.3772 16.5992 24.0047C15.2264 24.6322 14.6229 26.254 15.2503 27.626L17.3694 32.2602" stroke="#3E3E3E" stroke-width="2" stroke-miterlimit="10" stroke-linecap="round" stroke-linejoin="round"/>
<path d="M16.3378 43.1471L8.04062 36.9078C6.4037 35.6298 4.85983 35.7415 3.6678 36.9645C2.59365 38.0422 2.80724 39.4877 3.94786 40.9155L9.78036 47.1007C19.2696 57.563 24.8752 56.8469 24.8752 56.8469L25.827 58.9288" stroke="#3E3E3E" stroke-width="2" stroke-miterlimit="10" stroke-linecap="round" stroke-linejoin="round"/>
<path d="M29.2139 31.8791L25.8045 24.4239C25.177 23.0511 23.5551 22.4475 22.1832 23.075C20.8104 23.7025 20.2068 25.3244 20.8343 26.6963L22.9534 31.3306" stroke="#3E3E3E" stroke-width="2" stroke-miterlimit="10" stroke-linecap="round" stroke-linejoin="round"/>
<path d="M29.1218 31.678L27.0028 27.0437C26.3753 25.6709 26.9788 24.0499 28.3517 23.4224C29.7245 22.795 31.3455 23.3985 31.9729 24.7713L35.3824 32.2266C35.3824 32.2266 36.4264 34.5105 37.2559 36.3238C38.0855 38.1371 40.84 45.4044 39.048 50.3657L39.9998 52.4475" stroke="#3E3E3E" stroke-width="2" stroke-miterlimit="10" stroke-linecap="round" stroke-linejoin="round"/>
<path d="M36.8279 46.4218C36.9014 44.5439 36.6081 41.948 35.323 38.6688" stroke="#3E3E3E" stroke-miterlimit="10" stroke-linecap="round" stroke-linejoin="round"/>
<path d="M36.0518 50.0298C36.0518 50.0298 36.2077 49.7497 36.3806 49.1976" stroke="#3E3E3E" stroke-miterlimit="10" stroke-linecap="round" stroke-linejoin="round"/>
<path d="M5.35687 8.83367L1 5.4189L4.46351 1" stroke="#3E3E3E" stroke-width="2" stroke-miterlimit="10" stroke-linecap="round" stroke-linejoin="round"/>
<path d="M1 5.4189C1 5.4189 17.013 0.270602 35.3232 5.4189" stroke="#3E3E3E" stroke-width="2" stroke-miterlimit="10" stroke-linecap="round" stroke-linejoin="round"/>
</svg>
